<svg xmlns="http://www.w3.org/2000/svg" width="143" height="42" viewBox="0 0 143 42" fill="none">
  <path fill-rule="evenodd" clip-rule="evenodd" d="M14.4877 1.25C12.9757 0.674005 11.0557 0.386005 8.72767 0.386005L1.23967 0.386005V26.09H6.67567V16.226H9.59167L15.7117 26.09H21.7597L14.1997 14.894C15.0397 14.51 15.8197 14.018 16.5397 13.418C17.2837 12.794 17.8717 12.05 18.3037 11.186C18.7597 10.298 18.9877 9.26601 18.9877 8.09001C18.9877 6.36201 18.6157 4.93401 17.8717 3.80601C17.1277 2.654 15.9997 1.802 14.4877 1.25ZM6.67567 4.85001H8.33167C9.50767 4.85001 10.4677 4.97001 11.2117 5.21C11.9797 5.426 12.5437 5.78601 12.9037 6.29001C13.2877 6.77001 13.4797 7.41801 13.4797 8.23401C13.4797 9.00201 13.3117 9.66201 12.9757 10.214C12.6397 10.742 12.0997 11.138 11.3557 11.402C10.6117 11.666 9.63967 11.798 8.43967 11.798H6.67567V4.85001ZM25.0053 26.09H39.8013V21.59H30.4413V14.966H39.1533V10.502H30.4413V4.85001H39.8013V0.386005H25.0053V26.09ZM49.8298 5.93001L56.0218 26.09H61.0258L67.6498 5.96601H67.7938L67.6858 8.12601C67.6618 9.06201 67.6258 10.058 67.5778 11.114C67.5538 12.17 67.5418 13.106 67.5418 13.922V26.09H72.6178V0.386005L65.2018 0.386005L58.7578 20.042H58.6498L52.5658 0.386005H45.1498V26.09H50.0098V14.138C50.0098 13.25 49.9858 12.266 49.9378 11.186C49.8898 10.082 49.8418 9.05001 49.7938 8.09001L49.6858 5.93001H49.8298ZM101.683 18.638C102.187 17.006 102.439 15.194 102.439 13.202C102.439 10.538 101.995 8.22201 101.107 6.25401C100.243 4.26201 98.9108 2.72601 97.1108 1.64601C95.3108 0.542006 93.0188 -0.00999451 90.2348 -0.00999451C87.4268 -0.00999451 85.1108 0.542006 83.2868 1.64601C81.4868 2.72601 80.1428 4.25001 79.2548 6.218C78.3908 8.186 77.9588 10.502 77.9588 13.166C77.9588 15.158 78.1988 16.97 78.6788 18.602C79.1828 20.234 79.9268 21.638 80.9108 22.814C81.9188 23.966 83.1908 24.866 84.7268 25.514C86.2868 26.138 88.1108 26.45 90.1988 26.45C92.2868 26.45 94.0988 26.138 95.6348 25.514C97.1948 24.89 98.4668 23.99 99.4508 22.814C100.459 21.638 101.203 20.246 101.683 18.638ZM84.3668 17.846C83.9108 16.55 83.6828 15.002 83.6828 13.202C83.6828 11.402 83.9108 9.85401 84.3668 8.55801C84.8228 7.26201 85.5308 6.26601 86.4908 5.57C87.4508 4.874 88.6988 4.526 90.2348 4.526C92.5388 4.526 94.1948 5.29401 95.2028 6.83001C96.2108 8.36601 96.7148 10.49 96.7148 13.202C96.7148 15.002 96.4868 16.55 96.0308 17.846C95.5988 19.142 94.9028 20.138 93.9428 20.834C93.0068 21.53 91.7588 21.878 90.1988 21.878C88.6868 21.878 87.4508 21.53 86.4908 20.834C85.5308 20.138 84.8228 19.142 84.3668 17.846ZM111.137 26.09H116.573V4.92201H123.557V0.386005L104.153 0.386005V4.92201H111.137V26.09ZM127.521 26.09H142.317V21.59H132.957V14.966H141.669V10.502H132.957V4.85001H142.317V0.386005L127.521 0.386005V26.09ZM0.269997 32.9892H2.66062V41.0869H3.65672V32.9892H6.12937V32.122H0.269997V32.9892ZM12.8276 32.122H11.4623L8.52679 41.0869H9.55804L10.4018 38.456H14.0112L14.9018 41.0869H15.9623L12.8276 32.122ZM12.1479 32.9131L13.7299 37.6181H10.6713L11.9662 33.581L12.1479 32.9131ZM20.6449 32.122H19.6488V41.0869H24.1957V40.2256H20.6449V32.122ZM32.7865 32.122H27.7064V41.0869H32.9447V40.2256H28.7025V36.9443H31.9955V36.083H28.7025V32.9892H32.7865V32.122ZM37.5452 32.122H36.7542V41.0869H37.6624V34.7763L37.5335 33.581L38.0491 34.5888L42.1448 41.0869H42.9827V32.122H42.0745V38.5146L42.2034 39.7451L41.6702 38.6377L37.5452 32.122ZM46.4817 32.9892H48.8723V41.0869H49.8684V32.9892H52.3411V32.122H46.4817V32.9892ZM62.9777 40.3779C62.1301 40.3779 61.2629 40.1435 60.3762 39.6748L59.9895 40.4951C60.4035 40.7451 60.9172 40.9326 61.5305 41.0576C61.7922 41.1123 62.048 41.1494 62.298 41.1689C62.552 41.1924 62.8332 41.2041 63.1418 41.2041C63.4504 41.2041 63.7785 41.1611 64.1262 41.0752C65.2551 40.8056 65.8195 39.9697 65.8195 38.5674V38.4912C65.8195 37.5732 65.6008 36.9502 65.1633 36.622C64.9523 36.4658 64.6965 36.3545 64.3957 36.2881C64.0949 36.2177 63.6359 36.1338 63.0188 36.0361C62.4055 35.9384 61.9797 35.8252 61.7414 35.6963C61.3898 35.497 61.2141 35.0791 61.2141 34.4424V34.4189C61.2141 33.8603 61.3273 33.4677 61.5539 33.2412C61.8234 32.9716 62.3156 32.8369 63.0305 32.8369H63.0832C63.7316 32.8369 64.4406 33.0029 65.2102 33.3349L65.5148 32.4384C64.8781 32.1494 64.0578 32.0049 63.0539 32.0049H62.9777C62.548 32.0049 62.1633 32.0439 61.8234 32.122C60.7531 32.3759 60.218 33.1474 60.218 34.4365V34.4951C60.218 35.1162 60.3391 35.6025 60.5813 35.9541C60.6984 36.122 60.8391 36.2627 61.0031 36.3759C61.1711 36.4853 61.384 36.5869 61.6418 36.6806C61.8996 36.7744 62.3664 36.874 63.0422 36.9795C63.8 37.0966 64.2805 37.2431 64.4836 37.4189C64.6086 37.5244 64.6906 37.6611 64.7297 37.8291C64.7688 37.997 64.7883 38.2177 64.7883 38.4912V38.7197C64.7883 38.9892 64.7609 39.2275 64.7063 39.4345C64.5383 40.0634 63.9621 40.3779 62.9777 40.3779ZM70.1037 39.8916C70.549 40.7666 71.4669 41.2041 72.8576 41.2041H73.2209C74.1544 41.2041 74.8712 41.0049 75.3712 40.6064C75.6134 40.415 75.8048 40.1826 75.9455 39.9091C76.09 39.6357 76.1994 39.3291 76.2736 38.9892C76.3478 38.6494 76.3966 38.2802 76.4201 37.8818C76.4435 37.4795 76.4552 37.042 76.4552 36.5693C76.4552 36.0927 76.4474 35.6416 76.4318 35.2158C76.4005 34.3447 76.258 33.665 76.0041 33.1767C75.5978 32.3955 74.6701 32.0049 73.2209 32.0049H72.8576C71.9318 32.0049 71.2228 32.1806 70.7306 32.5322C70.4923 32.708 70.299 32.9267 70.1505 33.1884C70.006 33.4463 69.8927 33.7451 69.8107 34.0849C69.7326 34.4248 69.6798 34.8056 69.6525 35.2275C69.6252 35.6455 69.6115 36.0888 69.6115 36.5576C69.6115 37.0263 69.6212 37.4599 69.6408 37.8584C69.6877 38.706 69.8419 39.3838 70.1037 39.8916ZM74.2755 40.2197C73.9943 40.3134 73.6388 40.3603 73.2091 40.3603H72.8576C72.0685 40.3603 71.508 40.1299 71.1759 39.6689C70.8322 39.1963 70.6603 38.3838 70.6603 37.2314V36.5986C70.6603 36.1806 70.6681 35.706 70.6837 35.1748C70.6994 34.6435 70.7912 34.1826 70.9591 33.792C71.2248 33.1787 71.8341 32.872 72.7873 32.872H73.2794C74.2169 32.872 74.8263 33.2002 75.1076 33.8564C75.2443 34.1728 75.3283 34.5615 75.3595 35.0224C75.3908 35.4834 75.4064 36.0088 75.4064 36.5986V37.2314C75.4064 38.4619 75.2541 39.2939 74.9494 39.7275C74.7853 39.9619 74.5607 40.1259 74.2755 40.2197ZM81.7941 32.122H80.8097V36.956C80.8097 37.3388 80.8155 37.708 80.8273 38.0634C80.8546 38.8408 80.9874 39.4658 81.2257 39.9384C81.6554 40.7822 82.6085 41.2041 84.0851 41.2041C85.0773 41.2041 85.8233 41.0049 86.3233 40.6064C86.5616 40.4189 86.7452 40.1924 86.8741 39.9267C87.0069 39.6611 87.1105 39.3388 87.1847 38.9599C87.2589 38.5771 87.296 37.8838 87.296 36.8799V32.122H86.3116V36.915C86.3116 37.6064 86.2843 38.1748 86.2296 38.6201C86.1749 39.0654 86.0675 39.415 85.9073 39.6689C85.7511 39.9228 85.5284 40.0986 85.2394 40.1963C84.9542 40.2939 84.5265 40.3427 83.9562 40.3427C83.3898 40.3427 82.9444 40.2431 82.6202 40.0439C82.4483 39.9384 82.3077 39.7998 82.1983 39.6279C82.0929 39.4521 81.9991 39.1924 81.9171 38.8486C81.8351 38.5049 81.7941 37.8603 81.7941 36.915V32.122ZM95.1661 32.0049C94.3028 32.0049 93.2364 32.0537 91.9669 32.1513V41.0869H92.963V37.7822L93.8126 37.8174C94.0704 37.8252 94.338 37.831 94.6153 37.8349H94.6798C94.8595 38.0185 95.1368 38.3955 95.5118 38.9658L96.8595 41.0869H98.0313L96.4903 38.7724L96.1446 38.2744C96.0157 38.0947 95.8848 37.9228 95.752 37.7588C96.4669 37.6259 96.9786 37.2978 97.2872 36.7744C97.588 36.2588 97.7384 35.4736 97.7384 34.4189C97.7384 33.5947 97.5802 33.0009 97.2637 32.6377C96.8848 32.2158 96.2247 32.0049 95.2833 32.0049H95.1661ZM94.8966 37.0205C94.0177 37.0205 93.3731 37.0107 92.963 36.9912V32.8955L93.4845 32.8603C93.6485 32.8525 93.8106 32.8466 93.9708 32.8427C94.1309 32.8388 94.2911 32.8369 94.4512 32.8369C94.6153 32.833 94.7833 32.831 94.9552 32.831C95.1309 32.831 95.3341 32.8388 95.5645 32.8545C95.7989 32.8701 96.0137 32.9463 96.2091 33.083C96.5411 33.3134 96.7071 33.8017 96.7071 34.5478C96.7071 35.4345 96.5958 36.0556 96.3731 36.4111C96.1114 36.8174 95.6192 37.0205 94.8966 37.0205ZM107.067 39.9912C106.423 40.2373 105.782 40.3603 105.146 40.3603H105.093C104.183 40.3603 103.556 40.0966 103.212 39.5693C102.903 39.0966 102.749 38.2646 102.749 37.0732V36.6396C102.749 35.1904 102.892 34.208 103.177 33.6924C103.341 33.3916 103.567 33.1767 103.856 33.0478C104.149 32.915 104.565 32.8486 105.105 32.8486C105.648 32.8486 106.3 32.9814 107.062 33.247L107.325 32.3213C107.192 32.2705 106.935 32.206 106.552 32.1279C106.173 32.0459 105.671 32.0049 105.046 32.0049C104.077 32.0049 103.339 32.2041 102.831 32.6025C102.581 32.7939 102.382 33.0283 102.233 33.3056C102.085 33.583 101.972 33.8994 101.894 34.2549C101.815 34.6064 101.763 34.9951 101.735 35.4209C101.712 35.8427 101.7 36.2881 101.7 36.7568C101.7 37.2256 101.714 37.6572 101.741 38.0517C101.804 38.872 101.98 39.5244 102.269 40.0088C102.741 40.8056 103.673 41.2041 105.064 41.2041H105.146C105.466 41.2041 105.835 41.1728 106.253 41.1103C106.671 41.0517 107.028 40.9482 107.325 40.7998L107.067 39.9912ZM116.127 32.122H111.047V41.0869H116.285V40.2256H112.043V36.9443H115.336V36.083H112.043V32.9892H116.127V32.122Z" fill="black" fill-opacity="0.85"/>
  </svg>